<?xml version="1.0" standalone="no"?>
<!DOCTYPE svg PUBLIC "-//W3C//DTD SVG 20010904//EN"
 "http://www.w3.org/TR/2001/REC-SVG-20010904/DTD/svg10.dtd">
<svg version="1.0" xmlns="http://www.w3.org/2000/svg"
 width="225.000000pt" height="225.000000pt" viewBox="0 0 225.000000 225.000000"
 preserveAspectRatio="xMidYMid meet">

<g transform="translate(0.000000,225.000000) scale(0.100000,-0.100000)"
fill="#000000" stroke="none">
<path d="M410 1820 c-19 -19 -19 -23 -6 -48 8 -15 157 -169 330 -342 l316
-315 -332 -332 c-325 -326 -331 -332 -316 -355 9 -13 23 -25 33 -27 12 -2 119
98 346 325 l329 329 328 -328 c213 -213 335 -327 348 -327 26 0 44 18 44 44 0
14 -111 132 -327 348 l-328 328 328 328 c232 232 327 334 327 349 0 28 -33 47
-57 34 -10 -5 -162 -154 -338 -330 l-320 -321 -330 330 c-182 182 -336 330
-343 330 -7 0 -21 -9 -32 -20z"/>
</g>
</svg>
