<?xml version="1.0" standalone="no"?>
<!DOCTYPE svg PUBLIC "-//W3C//DTD SVG 20010904//EN"
 "http://www.w3.org/TR/2001/REC-SVG-20010904/DTD/svg10.dtd">
<svg version="1.0" xmlns="http://www.w3.org/2000/svg"
 width="512.000000pt" height="512.000000pt" viewBox="0 0 512.000000 512.000000"
 preserveAspectRatio="xMidYMid meet">

<g transform="translate(0.000000,512.000000) scale(0.100000,-0.100000)"
fill="#000000" stroke="none">
<path d="M376 4679 c-180 -26 -332 -175 -366 -358 -14 -74 -14 -2809 0 -2882
31 -165 151 -294 319 -345 39 -12 321 -14 1756 -14 l1710 1 -73 24 c-143 49
-290 136 -377 225 l-49 50 -1447 0 -1446 0 -34 23 c-19 12 -42 38 -51 57 -17
33 -18 121 -18 1420 0 1339 1 1386 19 1427 12 26 32 49 53 60 32 17 119 18
2038 18 1917 0 2007 -1 2033 -18 16 -10 37 -32 47 -50 19 -31 20 -55 20 -634
l0 -603 43 -21 c60 -31 178 -113 212 -149 16 -16 32 -30 37 -30 4 0 8 323 8
718 0 585 -3 725 -14 763 -45 147 -139 247 -285 303 l-56 21 -2010 1 c-1105 1
-2037 -2 -2069 -7z"/>
<path d="M3030 3584 c-132 -57 -165 -232 -64 -335 132 -135 355 -43 355 146 0
119 -88 206 -208 205 -26 -1 -64 -8 -83 -16z"/>
<path d="M1763 3424 c-29 -49 -577 -1006 -720 -1257 -2 -4 436 -6 974 -5 l978
3 7 82 c13 158 69 309 172 468 31 48 56 91 54 95 -3 9 -320 400 -324 400 -1 0
-124 -148 -273 -329 -149 -182 -275 -332 -279 -335 -4 -2 -124 201 -265 453
-142 252 -264 466 -271 476 -12 17 -17 12 -53 -51z"/>
<path d="M3949 3030 c-193 -23 -372 -108 -519 -246 -125 -118 -216 -271 -261
-439 -32 -117 -32 -327 -1 -444 87 -322 318 -560 639 -658 80 -24 103 -26 248
-27 146 0 168 2 248 27 332 102 562 343 644 673 25 103 23 324 -5 427 -85 315
-313 554 -620 651 -77 24 -224 47 -282 45 -14 -1 -55 -5 -91 -9z m252 -164
c400 -72 684 -475 615 -875 -47 -270 -219 -478 -485 -589 -133 -55 -322 -66
-466 -27 -147 39 -307 146 -396 263 -65 86 -133 227 -153 319 -54 246 25 516
204 691 185 183 433 262 681 218z"/>
<path d="M4560 1273 c-102 -58 -189 -109 -193 -113 -9 -8 281 -520 294 -520 4
0 93 50 197 110 l190 110 -145 253 c-80 138 -149 255 -152 259 -4 4 -90 -40
-191 -99z"/>
<path d="M4888 662 c-103 -59 -188 -110 -188 -114 0 -15 55 -70 89 -87 154
-79 334 25 330 190 -1 43 -21 111 -34 115 -6 2 -94 -45 -197 -104z"/>
</g>
</svg>
